<svg xmlns="http://www.w3.org/2000/svg" width="822" height="579.013" viewBox="0 0 822 579.013">
  <g id="board" transform="translate(-824 -250)">
    <path id="Caminho_46" data-name="Caminho 46" d="M20,0H693a20,20,0,0,1,20,20V375a20,20,0,0,1-20,20H20A20,20,0,0,1,0,375V20A20,20,0,0,1,20,0Z" transform="translate(933 306)" fill="#2d2d2d"/>
    <g id="undraw_Scrum_board_re_wk7v_1_" data-name="undraw_Scrum_board_re_wk7v (1)" transform="translate(824 250.003)">
      <path id="Caminho_1" data-name="Caminho 1" d="M371.238,218.495h-52.4a19.017,19.017,0,0,0-19,19V294.3c-.67-.04-1.34-.1-2-.18a67,67,0,1,1,73.1-77.63C371.048,217.155,371.148,217.825,371.238,218.495Z" transform="translate(-189.162 -160.495)" fill="#f2f2f2"/>
      <path id="Caminho_2" data-name="Caminho 2" d="M989.838,216.495h-671a21.023,21.023,0,0,0-21,21v354a21.023,21.023,0,0,0,21,21h671a21.023,21.023,0,0,0,21-21v-354a21.023,21.023,0,0,0-21-21Zm19,375a19.017,19.017,0,0,1-19,19h-671a19.017,19.017,0,0,1-19-19v-354a19.017,19.017,0,0,1,19-19h671a19.017,19.017,0,0,1,19,19Z" transform="translate(-189.162 -160.495)" fill="#3f3d56"/>
      <path id="Caminho_3" data-name="Caminho 3" d="M956.838,273.865h-605a1,1,0,0,1,0-2h605a1,1,0,0,1,0,2Z" transform="translate(-189.162 -160.495)" fill="#3f3d56"/>
      <path id="Caminho_4" data-name="Caminho 4" d="M522.838,569.495a1,1,0,0,1-1-1v-329a1,1,0,0,1,2,0v329a1,1,0,0,1-1,1Z" transform="translate(-189.162 -160.495)" fill="#3f3d56"/>
      <path id="Caminho_5" data-name="Caminho 5" d="M673.838,569.495a1,1,0,0,1-1-1v-329a1,1,0,0,1,2,0v329a1,1,0,0,1-1,1Z" transform="translate(-189.162 -160.495)" fill="#3f3d56"/>
      <path id="Caminho_6" data-name="Caminho 6" d="M824.838,569.495a1,1,0,0,1-1-1v-329a1,1,0,0,1,2,0v329a1,1,0,0,1-1,1Z" transform="translate(-189.162 -160.495)" fill="#3f3d56"/>
      <path id="Caminho_7" data-name="Caminho 7" d="M425.754,377.083h-36.54a4.505,4.505,0,0,1-4.5-4.5v-43.12a4.505,4.505,0,0,1,4.5-4.5h36.54a4.505,4.505,0,0,1,4.5,4.5v43.12A4.5,4.5,0,0,1,425.754,377.083Z" transform="translate(-189.162 -160.495)" fill="#09f"/>
      <path id="Caminho_8" data-name="Caminho 8" d="M477.754,500.083h-36.54a4.5,4.5,0,0,1-4.5-4.5v-43.12a4.505,4.505,0,0,1,4.5-4.5h36.54a4.505,4.505,0,0,1,4.5,4.5v43.12a4.5,4.5,0,0,1-4.5,4.5Z" transform="translate(-189.162 -160.495)" fill="#09f"/>
      <path id="Caminho_9" data-name="Caminho 9" d="M595.754,403.083h-36.54a4.505,4.505,0,0,1-4.5-4.5v-43.12a4.505,4.505,0,0,1,4.5-4.5h36.54a4.505,4.505,0,0,1,4.5,4.5v43.12a4.505,4.505,0,0,1-4.5,4.5Z" transform="translate(-189.162 -160.495)" fill="#09f"/>
      <path id="Caminho_10" data-name="Caminho 10" d="M748.754,356.083h-36.54a4.505,4.505,0,0,1-4.5-4.5v-43.12a4.505,4.505,0,0,1,4.5-4.5h36.54a4.505,4.505,0,0,1,4.5,4.5v43.12a4.505,4.505,0,0,1-4.5,4.5Z" transform="translate(-189.162 -160.495)" fill="#09f"/>
      <path id="Caminho_11" data-name="Caminho 11" d="M889.754,356.083h-36.54a4.505,4.505,0,0,1-4.5-4.5v-43.12a4.505,4.505,0,0,1,4.5-4.5h36.54a4.505,4.505,0,0,1,4.5,4.5v43.12A4.505,4.505,0,0,1,889.754,356.083Z" transform="translate(-189.162 -160.495)" fill="#09f"/>
      <path id="Caminho_12" data-name="Caminho 12" d="M954.754,368.083h-36.54a4.505,4.505,0,0,1-4.5-4.5v-43.12a4.505,4.505,0,0,1,4.5-4.5h36.54a4.505,4.505,0,0,1,4.5,4.5v43.12A4.505,4.505,0,0,1,954.754,368.083Z" transform="translate(-189.162 -160.495)" fill="#e6e6e6"/>
      <path id="Caminho_13" data-name="Caminho 13" d="M925.754,445.083h-36.54a4.505,4.505,0,0,1-4.5-4.5v-43.12a4.505,4.505,0,0,1,4.5-4.5h36.54a4.505,4.505,0,0,1,4.5,4.5v43.12A4.505,4.505,0,0,1,925.754,445.083Z" transform="translate(-189.162 -160.495)" fill="#e6e6e6"/>
      <path id="Caminho_14" data-name="Caminho 14" d="M801.754,429.083h-36.54a4.505,4.505,0,0,1-4.5-4.5v-43.12a4.505,4.505,0,0,1,4.5-4.5h36.54a4.505,4.505,0,0,1,4.5,4.5v43.12a4.505,4.505,0,0,1-4.5,4.5Z" transform="translate(-189.162 -160.495)" fill="#ff6584"/>
      <path id="Caminho_15" data-name="Caminho 15" d="M730.754,445.083h-36.54a4.505,4.505,0,0,1-4.5-4.5v-43.12a4.505,4.505,0,0,1,4.5-4.5h36.54a4.505,4.505,0,0,1,4.5,4.5v43.12A4.505,4.505,0,0,1,730.754,445.083Z" transform="translate(-189.162 -160.495)" fill="#e6e6e6"/>
      <path id="Caminho_16" data-name="Caminho 16" d="M577.754,513.083h-36.54a4.505,4.505,0,0,1-4.5-4.5v-43.12a4.505,4.505,0,0,1,4.5-4.5h36.54a4.505,4.505,0,0,1,4.5,4.5v43.12A4.505,4.505,0,0,1,577.754,513.083Z" transform="translate(-189.162 -160.495)" fill="#e6e6e6"/>
      <path id="Caminho_17" data-name="Caminho 17" d="M392.754,456.083h-36.54a4.505,4.505,0,0,1-4.5-4.5v-43.12a4.505,4.505,0,0,1,4.5-4.5h36.54a4.505,4.505,0,0,1,4.5,4.5v43.12A4.5,4.5,0,0,1,392.754,456.083Z" transform="translate(-189.162 -160.495)" fill="#ff6584"/>
      <path id="Caminho_18" data-name="Caminho 18" d="M495.754,377.083h-36.54a4.505,4.505,0,0,1-4.5-4.5v-43.12a4.5,4.5,0,0,1,4.5-4.5h36.54a4.505,4.505,0,0,1,4.5,4.5v43.12A4.5,4.5,0,0,1,495.754,377.083Z" transform="translate(-189.162 -160.495)" fill="#e6e6e6"/>
      <path id="Caminho_19" data-name="Caminho 19" d="M465.838,257.495h-57a4,4,0,0,1,0-8h57a4,4,0,0,1,0,8Z" transform="translate(-189.162 -160.495)" fill="#ccc"/>
      <path id="Caminho_20" data-name="Caminho 20" d="M626.838,257.495h-57a4,4,0,0,1,0-8h57a4,4,0,0,1,0,8Z" transform="translate(-189.162 -160.495)" fill="#ccc"/>
      <path id="Caminho_21" data-name="Caminho 21" d="M777.838,257.495h-57a4,4,0,0,1,0-8h57a4,4,0,0,1,0,8Z" transform="translate(-189.162 -160.495)" fill="#ccc"/>
      <path id="Caminho_22" data-name="Caminho 22" d="M918.838,257.495h-57a4,4,0,0,1,0-8h57a4,4,0,0,1,0,8Z" transform="translate(-189.162 -160.495)" fill="#ccc"/>
      <path id="Caminho_23" data-name="Caminho 23" d="M338.171,550.387a10.056,10.056,0,0,1-8.7-12.731l-25.633-23.861,13.553-3.438L342.6,530.8a10.11,10.11,0,0,1-4.426,19.586Z" transform="translate(-189.162 -160.495)" fill="#ffb8b8"/>
      <path id="Caminho_24" data-name="Caminho 24" d="M184.4,566.253h12.26l5.832-47.288H184.4Z" fill="#ffb8b8"/>
      <path id="Caminho_25" data-name="Caminho 25" d="M370.939,723.245H409.47v14.887H385.826a14.887,14.887,0,0,1-14.887-14.887h0Z" transform="translate(591.28 1300.863) rotate(179.997)" fill="#2f2e41"/>
      <path id="Caminho_26" data-name="Caminho 26" d="M100.345,557.4l11.848,3.154,17.8-44.2L112.509,511.7Z" fill="#ffb8b8"/>
      <path id="Caminho_27" data-name="Caminho 27" d="M285.307,718.541h38.531v14.887H300.194a14.887,14.887,0,0,1-14.887-14.887h0Z" transform="matrix(-0.966, -0.257, 0.257, -0.966, 222.996, 1345.388)" fill="#2f2e41"/>
      <path id="Caminho_28" data-name="Caminho 28" d="M389.123,717.795H370.416a4.73,4.73,0,0,1-4.726-4.293L354.333,595.57a3.748,3.748,0,0,0-7.321-.715l-32.973,110.2a4.742,4.742,0,0,1-5.7,3.246l-17.4-4.352a4.747,4.747,0,0,1-3.447-5.787c.284-1.11,28.411-111.028,28.656-112.158,6.373-46.968,14-59.554,18.093-66.315.339-.56.651-1.074.931-1.561.351-.608,2.512-6.645,3.884-10.565a4.79,4.79,0,0,1,2.435-2.978c17.211-8.8,37.347-2.709,43.109-.632a4.682,4.682,0,0,1,2.338,1.815c17.285,26.071,8.8,177.491,6.926,207.581a4.751,4.751,0,0,1-4.738,4.443Z" transform="translate(-189.162 -160.495)" fill="#2f2e41"/>
      <circle id="Elipse_1" data-name="Elipse 1" cx="24.561" cy="24.561" r="24.561" transform="translate(127.123 209.463)" fill="#ffb8b8"/>
      <path id="Caminho_29" data-name="Caminho 29" d="M338.244,512.333l-.177-.171c-.331-.32-33.056-32.38-28.821-62.024,1.811-12.68,12.07-20.781,29.668-23.431a27.135,27.135,0,0,1,30,19.121l17.4,59.484Z" transform="translate(-189.162 -160.495)" fill="#ccc"/>
      <path id="Caminho_30" data-name="Caminho 30" d="M321.495,535.136l-23.318-23.171a13.137,13.137,0,0,1-3.48-12.392l11.289-45.919a10.354,10.354,0,1,1,19.989,5.393l-11.884,40.4,19.218,20.637Z" transform="translate(-189.162 -160.495)" fill="#ccc"/>
      <path id="Caminho_31" data-name="Caminho 31" d="M446.566,456.058a10.056,10.056,0,0,1-14.884,4.029l-31.129,16.134,1.376-13.706,27.6-17.079a10.11,10.11,0,0,1,17.04,10.622Z" transform="translate(-189.162 -160.495)" fill="#ffb8b8"/>
      <path id="Caminho_32" data-name="Caminho 32" d="M428.283,466.26l-30.346,13.114a12.809,12.809,0,0,1-12.477-1.338l-38.589-27.649a10.355,10.355,0,1,1,12.435-16.554l33.088,26.042,26.3-10.175Z" transform="translate(-189.162 -160.495)" fill="#ccc"/>
      <path id="Caminho_33" data-name="Caminho 33" d="M344.918,402.39c3.03-3.8,8.691-4,12.853-6.5,5.452-3.28,7.706-10.611,5.949-16.726s-6.938-10.881-12.878-13.16-12.549-2.307-18.816-1.206c-9.33,1.64-18.516,6-24.207,13.569s-7.139,18.666-1.981,26.612c2.37,3.652,6.029,6.667,6.975,10.917,1.242,5.58-2.671,10.961-6.864,14.846-4.777,4.426-10.257,8.133-14.442,13.123s-6.976,11.806-5.066,18.032c1.6,5.216,6.256,9.059,11.361,10.984s10.666,2.2,16.121,2.309c5.3.1,10.924-.025,15.386-2.881,4.777-3.058,7.328-8.858,7.516-14.527s-1.706-11.223-4.245-16.294c-1.513-3.023-3.273-5.953-4.278-9.18s-1.18-6.89.431-9.863c1.693-3.125,5.117-5.009,8.6-5.694.181-.036.373-.067.573-.1a7.4,7.4,0,0,0,6.333-8.628C343.847,405.808,343.881,403.689,344.918,402.39Z" transform="translate(-189.162 -160.495)" fill="#2f2e41"/>
      <path id="Caminho_34" data-name="Caminho 34" d="M483.229,567.3h-12.26l-5.832-47.288h18.094Z" fill="#a0616a"/>
      <path id="Caminho_35" data-name="Caminho 35" d="M462.212,563.8h23.644v14.887H447.325A14.887,14.887,0,0,1,462.212,563.8Z" fill="#2f2e41"/>
      <path id="Caminho_36" data-name="Caminho 36" d="M572.184,553.413l-11.151,5.093-24.954-40.589,16.459-7.518Z" fill="#a0616a"/>
      <path id="Caminho_37" data-name="Caminho 37" d="M743.47,716.962h23.644v14.887H728.583A14.887,14.887,0,0,1,743.47,716.962Z" transform="translate(-422.528 215.688) rotate(-24.548)" fill="#2f2e41"/>
      <path id="Caminho_38" data-name="Caminho 38" d="M725.643,568.352a10.056,10.056,0,0,0,.8-15.4l14.412-32.7-18.309,3.1-10.879,30.577a10.11,10.11,0,0,0,13.975,14.419Z" transform="translate(-189.162 -160.495)" fill="#a0616a"/>
      <path id="Caminho_39" data-name="Caminho 39" d="M671.609,715.327H659.9a4.517,4.517,0,0,1-4.488-4.174l-6.387-170.559a4.5,4.5,0,0,1,4.925-4.8l67.735,7.193a4.5,4.5,0,0,1,4.062,4.394l1.419,75.235a3.491,3.491,0,0,0,.234,1.193l27.785,72.053a4.5,4.5,0,0,1-2.643,5.841l-11.868,4.373a4.5,4.5,0,0,1-5.557-2.164l-34.133-66.369a4.476,4.476,0,0,1-.4-1.143L694.746,608.3a3.5,3.5,0,0,0-6.9.313L676.08,711.338a4.5,4.5,0,0,1-4.471,3.989Z" transform="translate(-189.162 -160.495)" fill="#2f2e41"/>
      <circle id="Elipse_2" data-name="Elipse 2" cx="24.561" cy="24.561" r="24.561" transform="translate(463.718 197.617)" fill="#a0616a"/>
      <path id="Caminho_40" data-name="Caminho 40" d="M694.285,556.19a87.664,87.664,0,0,1-46.873-14.2l-.239-.165.025-.29,9.4-109.416a15.421,15.421,0,0,1,14.6-14.062c12.176-.56,28.531.146,37.286,6.667,13.231,9.854,19.608,24.694,17.5,40.712-4.38,33.219.582,78.029,1.162,83.029l.042.36-.33.151a77.265,77.265,0,0,1-32.562,7.21Z" transform="translate(-189.162 -160.495)" fill="#09f"/>
      <path id="Caminho_41" data-name="Caminho 41" d="M727.022,548.653a5.007,5.007,0,0,1-3.681-1.622l-5.373-5.861a5.026,5.026,0,0,1-1.109-4.795l12.251-41.464-18.64-39.144A8.809,8.809,0,0,1,726.18,447.8l25.295,41.042a11.951,11.951,0,0,1,.72,11.2l-20.61,45.665a4.987,4.987,0,0,1-3.766,2.88A5.049,5.049,0,0,1,727.022,548.653Z" transform="translate(-189.162 -160.495)" fill="#09f"/>
      <path id="Caminho_42" data-name="Caminho 42" d="M553.9,469.448a10.056,10.056,0,0,0,15-3.578l35.438,4.6-8.144-16.688-32.4-1.806a10.11,10.11,0,0,0-9.888,17.476Z" transform="translate(-189.162 -160.495)" fill="#a0616a"/>
      <path id="Caminho_43" data-name="Caminho 43" d="M632.011,478.562a13.434,13.434,0,0,1-1.844-.127L574.415,470.7a5.541,5.541,0,0,1-4.251-3.111,5.66,5.66,0,0,1-.318-.829h0a5.564,5.564,0,0,1,.575-4.432l4.614-7.649A5.584,5.584,0,0,1,579.791,452h.008l48.6.056,36.294-32.517a9.835,9.835,0,0,1,13.48,14.316l-36.215,40.278a13.364,13.364,0,0,1-9.942,4.434Z" transform="translate(-189.162 -160.495)" fill="#09f"/>
      <path id="Caminho_44" data-name="Caminho 44" d="M680.234,404.523c2.245-5.195,4.144-12.112-.161-15.785-2.5-2.13-6.094-2.135-9.365-2.4-9.217-.747-18.706-4.988-23.211-13.064s-1.989-20.084,6.51-23.728c5.729-2.456,12.3-.783,18.294.918l18.006,5.106c5.35,1.517,10.967,3.19,14.819,7.2,6.143,6.4,5.683,17.212.8,24.618S693.7,402.52,685.293,405.332Z" transform="translate(-189.162 -160.495)" fill="#2f2e41"/>
      <path id="Caminho_45" data-name="Caminho 45" d="M928.647,739.505H190.353a1.191,1.191,0,1,1,0-2.381H928.647a1.191,1.191,0,0,1,0,2.381Z" transform="translate(-189.162 -160.495)" fill="#3f3d56"/>
    </g>
  </g>
</svg>
